USFL
nRows=246
nColumns=2
inDegrees=yes
endheader
time	tib_ant_r	
2.92742	 61.364112	
2.96069	 61.364998	
2.99395	 61.354971	
3.02722	 61.353875	
3.06048	 61.346538	
3.09375	 61.336530	
3.12702	 61.349804	
3.16028	 61.366834	
3.19355	 61.351362	
3.22681	 61.366168	
3.26008	 61.368486	
3.29335	 61.367805	
3.32661	 61.383569	
3.35988	 61.386824	
3.39315	 61.402850	
3.42641	 61.401725	
3.45968	 61.398800	
3.49294	 61.410176	
3.52621	 61.423986	
3.55948	 61.414995	
3.59274	 61.425174	
3.62601	 61.426671	
3.65927	 61.410897	
3.69254	 61.394357	
3.72581	 61.400187	
3.75907	 61.402096	
3.79234	 61.399450	
3.8256	 61.402162	
3.85887	 61.399405	
3.89214	 61.377715	
3.9254	 61.380893	
3.95867	 61.396644	
3.99194	 61.386027	
4.0252	 61.382497	
4.05847	 61.372113	
4.09173	 61.390233	
4.125	 61.388202	
4.15827	 61.374750	
4.19153	 61.353130	
4.2248	 61.364106	
4.25806	 61.371032	
4.29133	 61.355522	
4.3246	 61.348282	
4.35786	 61.347128	
4.39113	 61.349624	
4.4244	 61.352965	
4.45766	 61.341002	
4.49093	 61.352703	
4.52419	 61.356675	
4.55746	 61.345103	
4.59073	 61.350935	
4.62399	 61.361027	
4.65726	 61.359136	
4.69052	 61.348376	
4.72379	 60.968708	
4.75706	 60.849112	
4.79032	 60.711808	
4.82359	 60.916841	
4.85685	 61.145324	
4.89012	 61.566511	
4.92339	 61.663774	
4.95665	 61.585538	
4.98992	 61.716491	
5.02319	 45.160002	
5.05645	 45.002590	
5.08972	 44.777396	
5.12298	 44.663590	
5.15625	 44.524756	
5.18952	 44.468921	
5.22278	 44.493228	
5.25605	 44.591641	
5.28931	 44.634909	
5.32258	 44.661141	
5.35585	 44.711076	
5.38911	 44.730611	
5.42238	 44.786492	
5.45565	 44.781136	
5.48891	 44.670893	
5.52218	 44.608252	
5.55544	 44.589847	
5.58871	 44.484938	
5.62198	 44.335442	
5.65524	 44.350416	
5.68851	 44.202197	
5.72177	 44.021409	
5.75504	 43.995139	
5.78831	 43.870592	
5.82157	 43.747712	
5.85484	 43.772826	
5.8881	 43.811894	
5.92137	 43.785372	
5.95464	 43.853802	
5.9879	 43.931507	
6.02117	 43.916181	
6.05444	 43.930030	
6.0877	 43.924053	
6.12097	 43.901977	
6.15423	 43.905779	
6.1875	 43.944609	
6.22077	 43.900515	
6.25403	 43.817092	
6.2873	 43.848029	
6.32056	 43.767584	
6.35383	 43.665850	
6.3871	 43.670005	
6.42036	 43.601231	
6.45363	 43.525140	
6.4869	 43.473208	
6.52016	 43.345796	
6.55343	 43.322420	
6.58669	 43.344899	
6.61996	 43.367711	
6.65323	 43.394993	
6.68649	 43.363869	
6.71976	 43.410274	
6.75302	 43.438770	
6.78629	 43.404523	
6.81956	 43.400451	
6.85282	 43.434804	
6.88609	 43.261909	
6.91935	 43.264357	
6.95262	 43.246613	
6.98589	 43.212557	
7.01915	 43.189653	
7.05242	 43.197484	
7.08569	 43.178843	
7.11895	 43.174626	
7.15222	 43.190893	
7.18548	 43.211532	
7.21875	 43.224744	
7.25202	 43.158078	
7.28528	 43.161507	
7.31855	 43.144329	
7.35181	 43.130093	
7.38508	 43.133608	
7.41835	 43.124986	
7.45161	 43.114356	
7.48488	 43.126345	
7.51815	 43.136623	
7.55141	 43.139415	
7.58468	 43.139078	
7.61794	 43.108132	
7.65121	 43.104738	
7.68448	 43.124195	
7.71774	 43.145188	
7.75101	 43.158203	
7.78427	 43.172800	
7.81754	 43.161871	
7.85081	 43.149299	
7.88407	 43.095012	
7.91734	 43.050845	
7.9506	 43.038611	
7.98387	 43.027591	
8.01714	 43.055753	
8.0504	 42.987963	
8.08367	 43.003902	
8.11694	 42.973905	
8.1502	 42.873579	
8.18347	 42.821255	
8.21673	 42.810069	
8.25	 42.841632	
8.28327	 42.871277	
8.31653	 42.885174	
8.3498	 42.856049	
8.38306	 42.845017	
8.41633	 42.805493	
8.4496	 42.775385	
8.48286	 42.776393	
8.51613	 42.782608	
8.5494	 42.788427	
8.58266	 42.770056	
8.61593	 42.764041	
8.64919	 42.757223	
8.68246	 42.690668	
8.71573	 42.682495	
8.74899	 42.671344	
8.78226	 42.710448	
8.81552	 42.748594	
8.84879	 42.735335	
8.88206	 42.790471	
8.91532	 42.767470	
8.94859	 42.755859	
8.98185	 42.699199	
9.01512	 42.652012	
9.04839	 42.640926	
9.08165	 42.659126	
9.11492	 42.675637	
9.14819	 42.689448	
9.18145	 42.696715	
9.21472	 42.701377	
9.24798	 42.699890	
9.28125	 42.686343	
9.31452	 42.684556	
9.34778	 42.694834	
9.38105	 42.727048	
9.41431	 42.781048	
9.44758	 42.830698	
9.48085	 42.901903	
9.51411	 42.913452	
9.54738	 42.955763	
9.58065	 42.975023	
9.61391	 43.000234	
9.64718	 43.055758	
9.68044	 43.044031	
9.71371	 43.081202	
9.74698	 43.116662	
9.78024	 43.151589	
9.81351	 43.200817	
9.84677	 43.234374	
9.88004	 43.276517	
9.91331	 43.342658	
9.94657	 43.350103	
9.97984	 43.375586	
10.0131	 43.416142	
10.0464	 43.440005	
10.0796	 43.428985	
10.1129	 43.704226	
10.1462	 43.609437	
10.1794	 43.263601	
10.2127	 43.164944	
10.246	 42.983031	
10.2792	 42.054904	
10.3125	 42.030294	
10.3458	 42.030143	
10.379	 42.066786	
10.4123	 41.977181	
10.4456	 42.074922	
10.4788	 49.806907	
10.5121	 49.957456	
10.5454	 49.986687	
10.5786	 49.909057	
10.6119	 50.060148	
10.6452	 50.038166	
10.6784	 49.928641	
10.7117	 49.940649	
10.745	 49.858507	
10.7782	 53.739162	
10.8115	 53.789882	
10.8448	 53.732600	
10.878	 53.753149	
10.9113	 53.731168	
10.9446	 53.685311	
10.9778	 53.685726	
11.0111	 53.681546	
11.0444	 53.688332	
11.0776	 53.651205	
